# xmcd
#
# Track frame offsets: 
#        150
#        14664
#        28071
#        41824
#        55556
#        69919
#        85542
#        99963
#        112436
#        127409
#        141655
#        153760
#        167450
#        179518
#        192770
#        205923
#        219422
#        232581
#        246760
#        262031
#
# Disc length: 3669 seconds
#
# Revision: 2
# Processed by: cddbd v1.5.2PL0 Copyright (c) Steve Scherf et al.
# Submitted via: ExactAudioCopy v0.99pb5
#
DISCID=1a0e5314
DTITLE=Various Artist - Ladies Sing The Blues (3CD2)
DYEAR=2010
DGENRE=Blues
TTITLE0=Peggy Lee - On The Sunny Side Of The Street
TTITLE1=Bessie Smith - Kitchen Man
TTITLE2=Ella Fitzgerald - Sugarfoot Rag
TTITLE3=Mildred Bailey - Junk Man
TTITLE4=Ethel Waters - Stormy Weather
TTITLE5=Bessie Smith - Downhearted Blues
TTITLE6=Anita O'Day - Blues For Bojangles
TTITLE7=Billie Holiday - Your Mother's Son-In-Law
TTITLE8=Lizzie Miles - Electrician Blues
TTITLE9=Ethel Waters - Sweet Georgia Brown
TTITLE10=Duke Ellington and Ivie Anderson - Mood Indigo
TTITLE11=Ida Cox - Take Him Off My Mind
TTITLE12=Anita O'Day - I Can't Give You Anything But Love
TTITLE13=Lena Horne - Mad About The Boy
TTITLE14=Ella Fitzgerald - I Got It Bad And That Ain't Good
TTITLE15=Bessie Smith - Nobody Knows You When You're Down And Out
TTITLE16=Sippie Wallace - I'm A Mighty Thight Woman
TTITLE17=Adelaide Hall - The Blues I Love To Sing
TTITLE18=Ethel Waters - Am I Blue
TTITLE19=Ida Cox - Hard Time Blues
EXTD=
EXTT0=
EXTT1=
EXTT2=
EXTT3=
EXTT4=
EXTT5=
EXTT6=
EXTT7=
EXTT8=
EXTT9=
EXTT10=
EXTT11=
EXTT12=
EXTT13=
EXTT14=
EXTT15=
EXTT16=
EXTT17=
EXTT18=
EXTT19=
PLAYORDER=
